# xmcd
#
# Track frame offsets:
#	150
#	20490
#	41573
#	79564
#	94120
#	119948
#	148891
#	169708
#	201159
#	215934
#	235645
#	269205
#	284219
#	308407
#
# Disc length: 4521 seconds
# Revision: 3
# Processed by: cddbd v1.5.2PL0 Copyright (c) Steve Scherf et al.
# Submitted via: dBpowerAMP V12.0
#
DISCID=db11a70e
DTITLE=Buddy Guy - Can't Quit the Blues, Disc 2
DYEAR=2006
DGENRE=Blues
TTITLE0=Damn Right, I've Got the Blues
TTITLE1=Mustang Sally
TTITLE2=Five Long Years
TTITLE3=Mary Ann
TTITLE4=She's Nineteen Years Old
TTITLE5=Miss Ida B
TTITLE6=Feels Like Rain
TTITLE7=7-11
TTITLE8=I Smell Trouble
TTITLE9=Someone Else Is Steppin' In (Slippin' Out, Slippin' In)
TTITLE10=My Time After Awhile (Live)
TTITLE11=Your Mind Is On Vacation
TTITLE12=Midnight Train
TTITLE13=Totally out of Control
EXTD=
EXTT0=
EXTT1=
EXTT2=
EXTT3=
EXTT4=
EXTT5=
EXTT6=
EXTT7=
EXTT8=
EXTT9=
EXTT10=
EXTT11=
EXTT12=
EXTT13=
PLAYORDER=
